<?xml version="1.0" encoding="UTF-8" standalone="no"?>
<!-- Created with Inkscape (http://www.inkscape.org/) -->

<svg
   xmlns:svg="http://www.w3.org/2000/svg"
   xmlns="http://www.w3.org/2000/svg"
   xmlns:xlink="http://www.w3.org/1999/xlink"
   version="1.0"
   width="800"
   height="600"
   viewBox="0 0 800 600"
   id="svg10"
   xml:space="preserve"><defs
     id="defs20" /><g
     id="Layer_1"
     style="display:none"><image
       xlink:href="file:///Users/yan/Library/Containers/com.apple.mail/Data/Library/Mail%20Downloads/4B71E519-6A17-4FF2-8CCB-64A33F5353C2/silhouettes/31091_orig.jpg"
       width="1810"
       height="1980"
       transform="matrix(0.3,0,0,0.3,128.5,3)"
       id="image13"
       style="display:inline;overflow:visible" /></g><g
     id="Layer_2"><path
       d="m 410.75,118.5 c 4.5,-9 8.562,-21.531 -3,-28.25 -7.195,-4.181 -14.518,-0.676 -18.25,1.75 -5,3.25 -14.05,16.122 -14.726,15.552 -2.643,-2.227 -4.324,-4.83 -9.95,-6.382 -5.438,-1.5 -11.73,-1.062 -17.305,-0.078 -1.897,0.335 -1.064,-1.221 -4.754,-0.666 -3.146,0.473 -2.342,1.719 -4.094,1.778 -4.885,0.166 -3.92,-1.085 -11.513,1.192 -5.566,1.67 -9.992,4.61 -12.658,7.104 -0.527,0.493 -0.865,2.208 -1.259,1.617 -3.711,-5.566 -25.572,-24.42 -39.336,-13.916 -4.254,3.246 0.095,15.799 3.595,26.299 2.512,7.535 12,13.5 15,15.75 2.923,2.193 1.5,5.824 2.75,8.25 2.084,4.047 5.641,6.61 5.5,7.25 -0.415,1.895 1.141,10.415 1.25,12.5 0.665,12.706 14.145,22.913 20.917,25.153 2.756,0.912 6.12242,6.52809 10.55242,9.99309 1.765,1.38 2.66716,2.43 8.92134,2.60142 3.62795,0.0994 9.53261,-1.25105 11.20261,-1.43705 2.47826,-0.83713 6.47952,-5.3958 5.3479,1.30632 0,0 -3.86027,11.23722 -4.26927,12.67022 -1.242,4.348 4.257,5.94 -0.135,8.225 -1.638,0.852 -5.903,2.504 -5.528,1.079 1.349,-5.124 -1.54,-6.355 -2.831,-6.606 -1.022,-0.199 -6.217,-2.797 -9.168,-0.54 -1.211,0.927 -0.624,2.18 0,5.798 0.239,1.387 -1.348,1.888 -4.854,-0.27 -2.028,-1.248 -5.124,-2.427 -7.146,-6.472 -0.962,-1.924 -0.135,-3.64 -4.045,-3.775 -1.162,-0.04 -3.506,0.944 -3.775,3.506 -0.078,0.743 0.139,1.619 0.597,2.598 0.914,1.951 -3.541,-3.736 -6.529,-1.923 -8.225,4.989 3.236,11.595 8.494,6.202 0.778,-0.798 1.045,0.309 2.832,1.483 1.892,1.243 -5.03,2.36 -5.258,5.663 -0.27,3.91 -10.542,1.521 -13.618,2.157 -3.91,0.809 -7.166,4.642 -6.203,5.393 0.808,0.631 -0.27,1.349 -2.966,0.944 -1.779,-0.267 -6.425,2.077 -4.584,7.416 0.832,2.413 4.584,3.37 7.416,1.752 1.441,-0.823 1.618,-0.809 3.236,-0.135 0.414,0.172 1.281,1.782 0.809,2.697 -0.252,0.488 -1.553,0.205 -2.022,0.674 -0.337,0.337 -2.142,-0.218 -3.505,0.539 -2.427,1.348 -2.251,3.994 -1.753,6.337 0.363,1.707 2.292,3.236 3.91,3.506 1.725,0.287 4.489,0.008 5.933,-2.157 0.879,-1.318 0.61,-3.319 1.079,-5.124 0.394,-1.515 2.292,-2.562 3.236,-3.775 0.548,-0.704 4.11,-1.228 4.314,-0.27 0.063,0.296 -1.197,1.459 -1.888,2.696 -0.691,1.237 -0.813,2.549 -0.539,3.236 0.89,2.232 1.838,4.149 0.135,3.641 -7.686,-2.292 -6.57,3.625 -6.606,5.258 -0.044,2.004 2.966,3.505 5.124,3.775 0.535,0.067 2.562,0.27 5.393,-1.618 2.793,-1.862 -0.169,-4.961 3.101,-7.685 3.043,-2.535 0.691,-2.862 3.371,-4.584 1.153,-0.741 4.608,-1.56 6.876,-1.618 3.658,-0.094 6.675,-1.553 8.764,-1.888 3.371,-0.54 7.628,-2.196 7.685,-2.157 4.315,2.966 5.476,3.806 5.528,3.91 0.674,1.348 5.329,3.739 6.337,4.18 2.157,0.944 7.281,1.888 15.641,0 3.625,-0.818 4.952,7.568 27.996,-0.048 2.359,-0.779 6.308,-4.639 16.728,0.943 2.997,1.605 -1.608,10.941 6.5,26 1.75,3.25 19.661,22.459 28.75,30.25 5.378,4.609 10.768,7.169 20.25,18.25 5.145,6.012 8.64,0.845 8.299,3.229 -0.928,6.05385 6.68,3.34 2.951,11.271 -0.0623,0.1329 0.0295,-1.11971 -1.12285,-2.71784 -1.47156,-2.04083 -2.65619,-2.88451 -4.56009,-3.88641 -2.2255,-1.17114 -5.99156,0.34547 -6.57206,1.3754 -1.348,2.393 7.2322,7.17425 4.8552,7.62125 -1.811,0.34 -7.2462,4.5776 -8.5002,5.8346 -0.679,0.68 -2.24,2.802 -4.073,3.168 -0.566,0.113 -3.03585,0.9766 -4.80285,2.1016 -2.041,1.299 -5.96115,5.7154 -4.15115,6.9604 1.537,1.057 3.815,1.439 6.238,1.35 3.055,-0.113 3.93797,-1.35879 6.98164,-5.52842 1.43077,-0.60741 3.47307,-1.00132 3.82607,-0.79932 1.281,0.734 0.95504,0.29559 2.78283,1.6655 0.838,0.152 -1.34058,0.81348 -0.13062,3.23048 0.453,0.905 -1.35624,0.33434 -2.17224,4.74734 -0.108,0.588 -2.12072,5.17242 -4.94972,7.09542 -0.769,0.523 -1.937,-0.435 -3.396,-0.34 -2.583,0.166 -5.566,1.686 -5.205,6.677 0.225,3.099 2.554,5.019 5.771,6.45 1.019,0.453 -0.636,1.909 -0.453,3.734 0.113,1.132 0.281,2.881 0.793,3.734 1.223,2.037 2.733,2.708 3.395,2.942 3.508,1.244 6.45,-1.472 7.808,-3.282 0.136,-0.182 3.462,3.324 7.13,2.49 4.979,-1.132 3.282,-6.338 3.621,-7.017 3.441,-6.893 1.472,0.792 3.621,-11.09 0.336,-1.859 0.607,-2.677 2.191,-6.411 1.149,-2.71 3.604,-5.58 6.409,-7.96 5.062,-4.291 4.979,-4.979 11.995,-5.885 6.997,-0.902 16.098,-10.565 18.149,-12.874 1.484,-1.67 7.236,0.37 10.253,-2.403 4.008,-3.685 4.147,-8.1 4.034,-12.626 -0.061,-2.432 4.076,0.273 6.309,-0.186 3.848,-0.792 7.607,-0.557 7.084,3.533 -0.499,3.896 1.292,9.935 1.472,12.561 0.773,11.296 -0.638,28.655 -2.433,47.177 -1.816,18.746 -1.766,35.235 -7.863,61.058 -1.443,6.112 -12.996,46.743 -40.271,66.117 -27.715,19.687 -71.21,18.062 -79.053,17.035 -38.851,-5.082 -50.099,-25.225 -53.342,-39.151 -5.771,-24.782 7.997,-40.063 21.459,-45.204 18.671,-7.13 42.436,-5.092 39.042,19.69 -1.344,9.807 -15.714,25.279 10.523,46.171 18.333,14.598 45.152,-27.838 23.722,-68.021 -6.814,-12.777 -17.799,-23.534 -25.955,-29.045 -14.725,-9.949 -40.529,-11.143 -55.791,-6.924 -41,11.333 -54.298,43.938 -57.298,53.271 -4.227,13.15 -4.98,31.511 -2.829,41.716 2.005,9.509 8.127,32.678 37.46,52.678 22.073,15.05 56.728,19.464 76,19 27.667,-0.666 50.56,-4.646 70.731,-12.905 40.13,-16.432 63.218,-44.621 75.264,-81.428 6,-18.333 10.487,-43.096 11.666,-50.334 2.334,-14.333 4.809,-52.009 1.737,-96.105 -1.263,-18.127 -4.335,-23.22 -4.317,-23.56 1.019,-19.69 -5.35,-21.737 -4.414,-30.214 3.09,-27.985 -4.792,-42.947 -4.946,-44.334 -0.441,-3.973 -3.845,-9.458 -6.798,-18.186 -1.865,-5.515 -2.789,-12.037 -4.944,-15.626 -6.239,-10.392 -1.77,-10.434 -9.005,-23.924 -8.255,-15.391 -15.202,-24.919 -21.835,-29.31 -24.104,-15.956 -44.791,-21.241 -57.644,-23.656 -25.871,-4.861 -37.117,1.083 -43.524,-0.108 -10.75,-2 -6.438,4.245 -19.69,-5.092 -11,-7.75 -18.727,-1.724 -17.035,-6.799 0.374,-1.127 1.924,-5.101 4.499,-10.252 z"
       id="path16" /></g></svg>